<svg width="25" height="38" viewBox="0 0 25 38" fill="none" xmlns="http://www.w3.org/2000/svg">
<path d="M24.2175 4.33884C23.8932 3.8422 23.4194 3.82794 22.8795 3.81168C22.8183 3.80984 22.7563 3.80798 22.6936 3.80538C22.6458 3.80318 22.5931 3.80403 22.538 3.80491C22.319 3.80843 22.0629 3.81254 21.9339 3.62857C21.7843 3.41528 21.7985 3.00308 21.8102 2.6628C21.8139 2.55527 21.8173 2.45486 21.8153 2.37025C21.7943 1.57977 21.7504 0.740078 21.4453 0.45937C21.2152 0.24876 20.5268 0.277937 19.892 0.304846C19.6862 0.313569 19.486 0.322053 19.3089 0.322053H5.79596C5.52389 0.322053 5.23869 0.299899 4.95847 0.278131C4.41245 0.235716 3.88533 0.194769 3.511 0.322053C2.96775 0.507681 2.93096 1.48312 2.89633 2.40164L2.89446 2.45106C2.86538 3.20933 2.67746 3.79444 2.05465 3.73551C1.33029 3.66806 0.609497 3.6468 0.281987 4.30239C-0.10481 5.07806 -0.0250375 5.89003 0.117847 7.34437C0.138258 7.55212 0.159956 7.77297 0.181766 8.0087H24.4264C24.4403 7.8364 24.455 7.66631 24.4696 7.49898C24.5831 6.19051 24.682 5.05047 24.2175 4.33884Z" fill="#8047F8"/>
<path fill-rule="evenodd" clip-rule="evenodd" d="M2.31144 9.21463C2.69009 14.3394 3.06456 19.47 3.43909 24.6008L3.43933 24.6039C3.64269 27.3898 3.84609 30.1756 4.05011 32.9605H4.82367C4.87639 33.3965 4.93672 33.9345 5.00031 34.5019C5.1294 35.6538 5.27201 36.9262 5.39191 37.7081H5.47748C6.26545 37.4198 11.7127 35.0916 11.7152 25.8218C11.7141 25.7953 11.715 25.7689 11.7177 25.7426H10.372C10.3068 25.742 10.2436 25.7203 10.1922 25.6807C10.1408 25.6412 10.1039 25.586 10.0873 25.5237C9.95614 25.1998 9.85039 24.8664 9.77099 24.5264C8.97928 24.9735 8.35058 25.6563 7.97448 26.4774C7.61746 25.6365 7.57074 24.6982 7.84246 23.8267C8.11419 22.9551 8.68709 22.2056 9.46106 21.7092C9.47103 19.0043 10.4838 16.3968 12.3076 14.3803L12.3361 14.3553C12.3891 14.3095 12.457 14.284 12.5273 14.2834C12.5681 14.2838 12.6082 14.2924 12.6454 14.3089C12.683 14.3256 12.7167 14.3499 12.7441 14.3803C14.5893 16.3995 15.5967 19.0321 15.5654 21.753C16.3538 22.2356 16.9384 22.9845 17.2106 23.8608C17.4828 24.7371 17.4242 25.6813 17.0457 26.5181C16.6716 25.6956 16.0423 25.0123 15.2491 24.567C15.2006 24.8965 15.1114 25.2189 14.9834 25.5269C14.9391 25.6582 14.8506 25.7426 14.762 25.7426H13.3268C13.3291 25.7583 13.3307 25.7741 13.3316 25.79L13.3322 25.7936V25.8013C13.3327 25.815 13.3327 25.8286 13.3322 25.8423C13.3519 35.3782 19.1434 37.5426 19.6316 37.7081H19.7986C19.8413 36.9571 19.9801 35.9207 20.1154 34.9103C20.2086 34.214 20.3002 33.5302 20.3575 32.9605H21.14C21.3905 29.4526 21.6481 25.9545 21.9057 22.4564L21.9058 22.4545L21.9059 22.4534C22.2355 17.9789 22.5649 13.5042 22.8795 9.0087H2.36155C2.30249 9.02025 2.30651 9.11681 2.31144 9.21463ZM12.5273 14.2834H12.5259H12.5291H12.5273Z" fill="#8047F8"/>
</svg>
